<?xml version="1.0" standalone="no"?>
<!DOCTYPE svg PUBLIC "-//W3C//DTD SVG 20010904//EN"
 "http://www.w3.org/TR/2001/REC-SVG-20010904/DTD/svg10.dtd">
<svg version="1.0" xmlns="http://www.w3.org/2000/svg"
 width="545.000000pt" height="545.000000pt" viewBox="0 0 545.000000 545.000000"
 preserveAspectRatio="xMidYMid meet">
<metadata>
Created by potrace 1.14, written by Peter Selinger 2001-2017
</metadata>
<g transform="translate(0.000000,545.000000) scale(0.100000,-0.100000)"
fill="#000000" stroke="none">
<path d="M2497 4658 c-4 -12 -11 -16 -23 -11 -13 5 -15 3 -10 -8 4 -8 0 -5
-10 6 -14 17 -16 17 -11 3 4 -10 2 -18 -4 -18 -6 0 -7 -6 -3 -12 5 -9 2 -9 -9
1 -13 11 -17 11 -17 1 0 -8 -3 -11 -6 -7 -3 3 -16 2 -29 -3 -15 -6 -27 -4 -35
3 -9 9 -11 9 -7 1 10 -17 -7 -21 -93 -23 -57 -2 -78 -6 -89 -19 -13 -16 -13
-16 -8 0 4 11 2 17 -5 15 -20 -3 -36 -21 -30 -31 3 -5 -1 -7 -10 -4 -9 4 -26
-6 -43 -23 -22 -24 -30 -27 -41 -18 -8 7 -17 9 -21 5 -3 -3 -1 -6 5 -6 7 0 12
-5 12 -11 0 -5 -4 -7 -10 -4 -5 3 -10 -1 -10 -9 0 -9 -11 -18 -25 -22 -18 -5
-23 -10 -16 -18 8 -9 2 -12 -19 -10 -20 1 -30 -3 -30 -12 0 -12 -4 -13 -22 -3
-22 12 -22 11 -8 -6 10 -13 11 -16 2 -11 -9 5 -15 1 -19 -14 -4 -16 -8 -18
-14 -8 -7 10 -9 9 -9 -4 0 -9 -5 -20 -12 -24 -7 -5 -8 -3 -3 6 5 9 4 11 -4 6
-9 -6 -9 -11 1 -24 8 -10 8 -13 1 -9 -6 4 -14 1 -16 -5 -4 -10 -6 -10 -6 0 -1
6 -6 12 -11 12 -6 0 -9 -3 -9 -7 1 -5 1 -17 0 -28 -1 -17 -3 -18 -11 -5 -7 10
-10 11 -11 3 -1 -7 -3 -17 -4 -23 -1 -5 -3 -13 -4 -17 -1 -5 -6 -1 -12 7 -9
13 -10 13 -6 0 2 -8 0 -25 -4 -37 -5 -14 -4 -23 4 -27 9 -3 9 -5 0 -5 -7 -1
-13 -6 -13 -11 0 -6 -10 -21 -21 -33 -12 -12 -19 -17 -15 -10 3 6 3 14 -2 17
-4 2 -9 -5 -9 -16 -1 -12 -7 -24 -13 -28 -7 -4 -11 -16 -9 -26 3 -25 -19 -77
-30 -70 -4 3 -17 -2 -27 -10 -17 -14 -17 -15 -1 -10 11 3 16 2 12 -4 -3 -6
-13 -10 -21 -10 -8 0 -14 -8 -14 -17 0 -15 -2 -16 -10 -3 -13 20 -13 4 0 -21
6 -11 7 -19 3 -18 -20 3 -30 -2 -30 -16 0 -12 3 -12 16 -3 9 7 6 1 -7 -14 -16
-17 -20 -28 -12 -33 8 -5 8 -11 -1 -21 -9 -11 -9 -14 1 -14 9 0 7 -8 -5 -26
-9 -15 -12 -23 -6 -20 6 4 11 0 11 -9 0 -10 -5 -13 -12 -9 -8 5 -9 2 -5 -9 3
-9 2 -19 -4 -23 -7 -4 -6 -10 1 -19 7 -9 8 -15 1 -19 -6 -4 -7 -14 -4 -23 4
-11 3 -14 -5 -9 -7 4 -12 1 -12 -8 0 -9 -4 -16 -10 -16 -5 0 -9 -3 -9 -7 1 -5
0 -11 -1 -15 -4 -14 -7 -28 -9 -39 0 -6 -10 -9 -20 -6 -16 4 -19 0 -16 -24 3
-20 0 -27 -7 -23 -7 5 -8 2 -3 -7 14 -21 15 -60 3 -53 -6 4 -9 3 -6 -2 6 -8
18 -70 21 -105 1 -8 10 -24 20 -33 10 -10 15 -21 12 -24 -3 -4 -10 0 -15 8 -6
8 -10 10 -10 4 0 -6 7 -17 15 -24 9 -8 13 -21 9 -36 -4 -13 -2 -24 4 -24 6 0
7 -13 2 -33 -5 -23 -3 -37 7 -45 17 -16 17 -36 1 -26 -9 5 -8 2 1 -9 8 -10 11
-20 8 -24 -4 -3 -2 -12 4 -19 7 -8 7 -14 -1 -19 -7 -4 -8 -11 -1 -18 9 -12 11
-18 11 -38 0 -5 4 -8 9 -5 5 4 7 -3 4 -14 -3 -12 0 -20 6 -20 7 0 9 -4 6 -10
-3 -5 -1 -10 6 -10 8 0 9 -4 0 -13 -8 -10 -7 -17 1 -25 9 -9 9 -12 -1 -12 -10
0 -11 -3 -2 -14 9 -10 9 -16 1 -21 -7 -4 -8 -11 -1 -18 5 -7 9 -16 9 -22 0 -5
-4 -15 -9 -22 -7 -7 -6 -14 1 -18 6 -3 7 -12 3 -18 -10 -16 -10 -38 -1 -59 5
-9 4 -20 -2 -23 -6 -4 -4 -12 6 -22 12 -13 13 -17 2 -24 -8 -6 -9 -9 -2 -9 14
0 24 -69 12 -76 -5 -3 -4 -12 3 -20 9 -11 9 -14 -1 -14 -9 0 -9 -4 -2 -13 6
-7 7 -18 2 -26 -4 -8 -3 -27 2 -43 6 -16 8 -32 5 -35 -3 -3 0 -11 7 -19 10
-10 12 -24 6 -49 -5 -24 -4 -35 4 -35 7 0 6 -3 -2 -9 -11 -7 -11 -9 2 -14 9
-4 13 -13 10 -21 -3 -8 -1 -17 5 -20 7 -4 7 -15 1 -31 -6 -16 -6 -27 2 -31 7
-5 8 -3 3 6 -5 8 -4 11 3 7 5 -4 8 -16 5 -27 -3 -11 0 -20 6 -20 8 0 9 -6 2
-18 -6 -11 -6 -24 0 -35 7 -11 6 -17 -1 -17 -8 0 -8 -6 0 -20 6 -11 7 -20 2
-20 -5 0 -8 -10 -6 -23 1 -12 3 -26 3 -30 1 -5 5 -6 10 -2 5 3 13 0 17 -6 4
-8 3 -9 -4 -5 -8 5 -10 -5 -6 -36 4 -24 8 -45 10 -47 2 -2 -1 -12 -6 -22 -7
-12 -6 -20 1 -25 8 -4 7 -9 -2 -15 -9 -5 -10 -9 -2 -9 6 0 9 -9 5 -22 -4 -16
-2 -19 8 -13 9 5 11 4 6 -4 -4 -6 -2 -18 4 -26 7 -8 9 -15 4 -15 -11 0 -10
-52 1 -70 6 -9 4 -11 -6 -5 -8 5 -7 0 4 -12 9 -11 14 -23 11 -26 -4 -4 -2 -12
4 -20 6 -7 7 -18 2 -26 -5 -9 -3 -20 7 -29 12 -12 12 -16 1 -23 -11 -7 -11 -9
0 -9 7 0 10 -4 7 -10 -3 -5 1 -10 9 -10 9 0 16 -5 16 -11 0 -5 -4 -7 -10 -4
-14 8 -1 -26 18 -47 14 -16 13 -18 -4 -19 -16 0 -16 -1 4 -9 12 -5 22 -12 22
-15 0 -4 -4 -3 -10 0 -5 3 -10 1 -10 -4 0 -6 5 -11 11 -11 6 0 9 -9 6 -20 -3
-11 -1 -18 4 -15 9 6 39 -46 39 -70 0 -14 12 -20 33 -16 5 1 6 -3 2 -9 -3 -6
-12 -7 -18 -3 -8 5 -8 2 0 -9 7 -8 9 -19 5 -23 -4 -5 1 -5 11 -2 11 4 16 3 12
-3 -3 -6 -1 -10 5 -10 6 0 8 -4 5 -10 -3 -5 -1 -10 4 -10 6 0 11 -5 11 -11 0
-5 -6 -7 -12 -3 -9 5 -9 2 1 -9 7 -9 10 -17 6 -17 -4 0 -3 -6 4 -13 7 -10 7
-17 0 -24 -8 -8 -7 -13 1 -18 8 -5 8 -10 -1 -21 -9 -11 -9 -14 1 -14 10 0 10
-3 1 -14 -8 -10 -9 -16 -1 -21 7 -4 7 -12 0 -24 -5 -10 -6 -21 -3 -25 3 -3 1
-6 -6 -6 -14 0 -42 -25 -36 -32 3 -3 -1 -5 -8 -5 -6 -1 -31 -2 -54 -4 -23 -1
-40 -6 -37 -11 8 -12 -19 -5 -28 7 -5 6 -8 3 -8 -6 0 -20 -23 -32 -68 -37 -8
-1 -10 -7 -6 -14 5 -8 0 -7 -11 2 -10 8 -16 10 -12 3 8 -12 -9 -19 -61 -26
-12 -2 -28 -10 -35 -17 -9 -11 -7 -11 8 0 19 14 19 14 6 -3 -8 -10 -20 -16
-28 -13 -9 4 -11 1 -7 -6 5 -8 2 -9 -10 -5 -13 5 -15 3 -7 -12 7 -13 6 -18 -4
-18 -8 0 -11 5 -8 11 8 13 -28 -14 -39 -29 -5 -6 -8 -5 -8 3 0 7 -5 10 -10 7
-6 -4 -7 -11 -4 -17 4 -7 2 -8 -5 -4 -6 4 -18 2 -26 -4 -12 -10 -15 -10 -16 1
0 8 -4 4 -9 -8 -10 -25 -30 -31 -30 -10 0 8 -3 7 -9 -3 -6 -8 -7 -19 -3 -25 3
-5 -3 -3 -13 5 -15 12 -17 12 -10 1 6 -11 4 -13 -8 -8 -10 3 -17 2 -17 -2 0
-5 -7 -12 -16 -15 -10 -4 -13 -2 -8 7 5 9 4 9 -7 -1 -7 -6 -21 -12 -31 -12
-10 0 -18 -4 -18 -8 0 -4 -10 -8 -21 -9 -12 -1 -33 -12 -47 -25 -14 -13 -22
-18 -19 -12 3 6 0 11 -8 11 -8 0 -12 -4 -10 -8 3 -3 -2 -12 -10 -19 -11 -9
-15 -9 -15 -1 0 7 -5 9 -10 6 -6 -4 -8 -10 -5 -15 3 -4 -2 -11 -11 -14 -8 -3
-13 -2 -10 3 3 5 -10 1 -29 -7 -19 -9 -32 -19 -30 -23 8 -13 -22 -18 -36 -6
-8 7 -10 8 -6 3 4 -5 -3 -14 -16 -21 -15 -8 -24 -8 -29 -1 -5 7 -8 6 -8 -2 0
-7 -4 -10 -10 -7 -5 3 -10 2 -10 -3 0 -6 -7 -13 -16 -16 -8 -3 -12 -2 -9 3 3
5 -9 3 -25 -6 -21 -10 -29 -20 -25 -30 4 -13 3 -14 -10 -3 -14 12 -19 7 -16
-13 1 -5 -3 -6 -9 -2 -5 3 -10 0 -10 -7 0 -11 -2 -10 -9 0 -6 11 -10 10 -15
-3 -5 -13 -10 -15 -19 -6 -10 8 -17 7 -25 -1 -9 -9 -12 -9 -12 1 0 6 -12 -1
-26 -16 -15 -15 -21 -21 -15 -11 9 12 9 18 0 24 -8 4 -9 3 -5 -5 4 -6 1 -14
-8 -17 -9 -3 -12 -12 -9 -22 4 -9 2 -14 -2 -9 -5 4 -18 -1 -29 -10 -20 -17
-20 -17 -6 2 15 19 15 19 -11 0 -15 -11 -24 -24 -21 -30 3 -5 -2 -4 -11 4 -12
9 -17 10 -17 2 0 -7 -5 -9 -10 -6 -6 4 -9 1 -8 -6 2 -6 -3 -14 -11 -17 -9 -3
-11 0 -7 9 4 8 -1 5 -11 -6 -10 -11 -27 -20 -38 -20 -11 0 -26 -7 -33 -15 -8
-8 -11 -9 -7 -2 3 6 1 12 -4 12 -6 0 -11 -4 -11 -9 0 -11 -63 -19 -87 -10 -36
13 -43 -8 -43 -127 l0 -114 2480 0 c1496 0 2480 4 2480 9 0 5 -6 12 -12 15 -7
4 -3 4 10 2 12 -2 20 0 16 5 -3 5 -12 9 -21 9 -10 0 -13 6 -9 17 5 15 3 14
-10 -2 -16 -20 -16 -20 -9 4 5 16 4 21 -4 17 -6 -4 -11 0 -11 11 0 15 -2 16
-10 3 -8 -13 -10 -12 -10 3 0 9 -4 17 -10 17 -5 0 -10 6 -10 14 0 8 -9 21 -20
29 -11 8 -17 17 -12 21 4 4 3 7 -3 6 -22 -5 -45 1 -45 11 0 5 5 7 12 3 7 -4 8
-3 4 4 -4 6 -14 8 -24 5 -15 -6 -16 -5 -2 12 9 11 10 16 3 11 -7 -4 -13 -2
-13 3 0 6 -7 11 -15 11 -8 0 -15 5 -15 11 0 5 6 7 13 3 9 -6 9 -5 0 8 -7 8 -9
19 -5 23 4 5 -2 5 -13 1 -11 -4 -16 -4 -12 0 4 4 -2 13 -13 21 -11 8 -20 21
-20 30 0 9 -6 13 -15 9 -13 -5 -14 -2 -4 17 11 20 11 21 -4 8 -12 -9 -17 -10
-17 -2 0 7 -4 9 -10 6 -5 -3 -10 2 -10 12 0 15 -2 16 -10 3 -6 -10 -10 -11
-10 -2 0 6 -9 12 -20 12 -11 0 -20 6 -20 13 0 8 -4 7 -10 -3 -7 -11 -10 -11
-10 -2 0 9 -11 12 -32 10 -21 -2 -39 3 -50 14 -10 10 -24 18 -30 18 -7 -1 -2
-7 12 -15 14 -8 19 -14 12 -15 -7 0 -23 11 -35 23 -12 13 -32 23 -44 22 -14
-1 -25 5 -29 17 -3 10 -10 18 -15 18 -6 0 -7 -4 -4 -10 3 -6 -1 -7 -9 -4 -9 3
-13 11 -10 16 4 6 1 9 -7 6 -7 -2 -22 5 -32 16 -10 12 -15 14 -11 6 6 -12 4
-13 -7 -2 -7 6 -20 12 -29 12 -8 0 -22 9 -30 20 -10 14 -16 16 -22 7 -6 -9 -8
-9 -8 1 0 6 -9 12 -21 12 -12 0 -17 4 -13 11 5 8 1 8 -14 0 -18 -9 -20 -8 -18
12 2 14 -2 24 -10 24 -7 0 -11 -4 -8 -9 3 -4 -2 -5 -10 -2 -9 3 -13 10 -10 15
3 5 -13 9 -35 9 -26 0 -41 5 -41 13 0 9 -3 8 -9 -2 -6 -9 -10 -10 -12 -2 -3 7
-11 13 -19 14 -8 2 -21 6 -27 10 -9 6 -11 3 -7 -10 3 -10 -2 -6 -11 10 -8 15
-18 27 -21 27 -3 0 -2 -4 1 -10 3 -5 1 -10 -4 -10 -6 0 -11 5 -11 11 0 6 -7 8
-15 5 -9 -3 -18 1 -22 10 -5 13 -7 13 -14 2 -7 -10 -9 -11 -9 0 0 7 -4 11 -9
8 -5 -3 -14 1 -21 9 -7 8 -18 15 -24 15 -6 0 -4 -5 4 -11 12 -9 12 -10 -3 -5
-10 3 -20 6 -23 6 -2 0 -1 7 3 16 5 14 3 15 -15 5 -12 -6 -22 -7 -24 -1 -2 5
-21 11 -42 13 -27 3 -42 10 -47 23 -5 13 -8 14 -8 4 -1 -10 -4 -11 -9 -4 -4 7
-20 12 -36 12 -17 0 -36 7 -44 18 -13 17 -14 17 -9 2 4 -10 2 -18 -3 -18 -6 0
-10 6 -10 14 0 8 -5 18 -12 22 -7 4 -8 3 -4 -4 4 -7 2 -12 -3 -12 -6 0 -11 5
-11 11 0 6 -7 9 -15 5 -8 -3 -15 0 -15 6 0 7 -5 6 -15 -2 -12 -10 -16 -9 -21
4 -3 9 -15 16 -25 16 -10 0 -19 5 -19 11 0 6 -7 8 -15 5 -9 -3 -18 1 -22 10
-3 8 -11 13 -18 10 -14 -5 -46 29 -37 40 4 4 1 4 -6 0 -11 -6 -11 -11 0 -24 7
-10 0 -6 -14 7 -17 15 -35 22 -47 18 -12 -3 -26 2 -36 13 -9 10 -23 16 -30 14
-7 -3 -15 2 -19 11 -4 11 -2 14 7 9 9 -6 9 -5 0 7 -17 22 -13 58 7 51 8 -3 12
-2 8 3 -4 4 0 14 10 22 11 10 12 12 2 8 -8 -4 -4 2 10 14 14 11 25 26 26 33 3
34 5 39 16 32 8 -5 9 -2 4 11 -6 16 -4 16 10 4 16 -13 16 -12 5 9 -6 12 -8 22
-4 21 27 -5 35 1 23 16 -10 12 -10 15 0 15 8 0 10 3 7 7 -10 9 14 34 27 27 6
-3 2 2 -8 10 -11 9 -14 16 -7 16 7 0 9 5 6 10 -4 6 -3 10 2 9 20 -3 25 2 13
16 -11 13 -10 14 5 9 13 -5 16 -4 11 4 -4 7 -3 12 2 12 5 0 8 11 7 25 -2 14 0
23 5 20 4 -3 10 2 14 10 3 8 0 15 -7 15 -8 0 -6 4 3 10 8 5 11 10 6 10 -5 0
-3 6 3 13 6 8 8 17 4 20 -3 4 1 7 11 7 9 0 14 5 11 10 -4 6 -12 8 -18 4 -7 -3
-3 2 7 10 11 9 16 16 12 16 -5 0 -3 6 3 13 6 8 8 17 4 21 -4 4 -1 11 7 16 9 6
10 10 3 10 -8 0 -9 9 -2 33 6 17 12 42 13 55 2 12 6 25 8 28 3 3 2 21 -2 40
-5 23 -4 34 3 34 8 0 8 3 0 11 -12 12 -5 61 9 53 6 -4 5 3 -1 14 -7 14 -8 23
-1 27 6 4 8 11 5 16 -4 5 -2 9 2 9 10 0 10 46 1 56 -4 3 -2 19 3 36 5 20 5 36
-2 44 -8 9 -5 11 13 8 13 -2 17 -2 10 2 -6 3 -9 11 -5 16 3 6 5 29 5 50 -1 26
2 37 9 32 7 -4 7 1 -1 16 -8 15 -8 20 -1 16 6 -4 11 -2 11 3 0 6 6 10 13 9 7
-2 11 6 11 20 -1 16 2 20 11 12 17 -14 27 0 12 18 -9 13 -9 14 1 8 7 -4 12 -2
13 6 2 34 11 63 22 70 9 6 9 8 -2 8 -10 0 -11 3 -2 14 8 10 9 16 1 21 -6 3 -7
12 -3 18 10 17 11 47 1 53 -5 3 -4 12 3 20 9 11 9 14 0 14 -9 0 -9 5 -1 20 8
15 8 20 -1 20 -8 0 -9 4 0 13 6 8 8 17 4 20 -3 4 -2 7 4 7 5 0 10 27 10 60 0
34 3 64 7 67 3 3 1 12 -5 20 -6 7 -8 13 -3 13 5 0 9 29 9 64 0 56 -2 63 -15
53 -8 -6 -12 -7 -7 -2 4 4 -1 17 -10 28 -10 10 -17 22 -16 26 6 15 -9 41 -20
34 -9 -5 -8 -2 0 8 8 10 9 19 3 25 -6 6 -6 22 -1 42 5 17 6 34 1 37 -5 3 -5
19 0 35 5 17 6 30 2 30 -3 0 3 7 14 16 10 8 12 13 4 9 -10 -4 -9 -2 3 8 9 8
17 19 17 26 0 6 4 11 8 11 4 0 8 15 7 33 0 17 5 35 10 39 6 4 1 8 -9 8 -20 0
-20 0 0 15 14 10 15 14 5 15 -11 0 -10 3 3 13 13 10 18 26 18 58 -1 24 4 47
10 50 6 4 12 21 13 38 2 21 -1 29 -9 24 -6 -4 -5 1 3 10 9 11 10 17 2 17 -6 0
-11 6 -11 14 0 8 -6 16 -12 18 -14 5 -19 68 -6 68 14 0 2 42 -15 55 -9 7 -13
16 -9 21 4 4 -1 2 -11 -5 -15 -12 -17 -12 -11 3 3 9 1 16 -5 16 -6 0 -8 6 -5
14 6 17 -24 49 -38 40 -7 -4 -8 -2 -4 5 4 6 11 9 15 6 5 -2 3 12 -4 33 -10 28
-10 40 -2 51 9 12 9 13 0 7 -8 -4 -13 -2 -13 4 0 6 -5 8 -12 4 -8 -5 -9 -2 -5
9 3 10 2 17 -4 17 -6 0 -7 6 -3 13 5 7 2 7 -10 -2 -9 -8 -16 -10 -14 -5 1 5
-3 19 -10 30 -6 12 -9 24 -6 27 3 2 -7 14 -22 26 -15 11 -24 21 -20 21 4 0 2
9 -4 20 -6 11 -7 20 -2 20 8 0 5 37 -6 83 -1 4 -2 12 -2 17 0 6 -7 10 -15 10
-8 0 -12 6 -9 14 3 8 -5 21 -18 30 -15 11 -18 16 -8 16 8 1 3 7 -12 16 -17 9
-25 20 -22 29 4 8 1 15 -6 15 -6 0 -9 4 -5 9 3 5 0 13 -6 17 -7 4 -9 3 -5 -4
3 -6 2 -13 -3 -16 -5 -4 -8 5 -7 19 2 14 -4 30 -13 37 -14 12 -14 11 -2 -4 8
-11 9 -18 3 -18 -13 0 -27 38 -23 63 1 9 -2 17 -8 17 -6 0 -8 6 -5 14 3 9 -3
17 -15 21 -12 3 -21 10 -21 15 0 6 -14 8 -30 6 -24 -3 -28 -1 -19 10 8 10 6
12 -12 9 -16 -3 -20 -2 -12 6 12 12 6 42 -7 34 -5 -3 -6 5 -3 17 4 19 3 20 -7
8 -10 -13 -11 -11 -7 7 3 15 1 20 -9 16 -8 -3 -21 7 -31 25 -16 28 -28 34 -93
48 -8 1 -21 12 -29 23 -7 12 -22 21 -32 21 -10 0 -21 5 -25 12 -4 7 -3 8 4 4
7 -4 12 -3 12 2 0 5 -13 9 -29 8 -16 0 -29 -3 -29 -6 0 -3 -1 -8 -2 -12 -1 -5
-3 -12 -4 -18 0 -5 -4 -10 -8 -10 -5 0 -11 0 -14 0 -4 0 -1 6 5 14 9 11 9 16
0 22 -7 4 -9 3 -6 -3 7 -12 -37 -65 -47 -56 -4 4 -11 1 -16 -7 -6 -10 -10 -11
-10 -3 0 7 -7 10 -16 6 -11 -4 -22 1 -30 12 -14 18 -14 18 -15 -1 0 -17 -1
-17 -9 3 -6 15 -15 21 -30 18 -11 -2 -20 0 -20 5 0 5 -7 7 -16 3 -9 -3 -20 0
-25 8 -7 12 -9 12 -9 0 0 -12 -3 -12 -12 2 -8 10 -38 19 -80 25 -60 8 -67 7
-71 -10z m-401 -120 c4 -7 3 -8 -4 -4 -7 4 -12 2 -12 -5 0 -7 -3 -10 -6 -6 -6
5 3 27 11 27 2 0 7 -5 11 -12z m1428 -596 c3 -5 -1 -9 -9 -9 -8 0 -12 4 -9 9
3 4 7 8 9 8 2 0 6 -4 9 -8z m-194 -2826 c0 -2 -7 -7 -16 -10 -8 -3 -12 -2 -9
4 6 10 25 14 25 6z m-25 -166 c3 -5 1 -10 -4 -10 -6 0 -11 5 -11 10 0 6 2 10
4 10 3 0 8 -4 11 -10z m1696 -800 c10 -6 19 -16 19 -23 0 -8 -3 -9 -8 -1 -4 6
-16 16 -27 22 -25 14 -11 16 16 2z"/>
<path d="M3040 4616 c0 -2 7 -6 15 -10 8 -3 15 -1 15 4 0 6 -7 10 -15 10 -8 0
-15 -2 -15 -4z"/>
<path d="M3670 2890 c0 -5 5 -10 11 -10 5 0 7 5 4 10 -3 6 -8 10 -11 10 -2 0
-4 -4 -4 -10z"/>
<path d="M1733 1295 c0 -8 4 -12 9 -9 5 3 6 10 3 15 -9 13 -12 11 -12 -6z"/>
<path d="M4860 331 c0 -10 19 -25 25 -20 1 2 -3 10 -11 17 -8 7 -14 8 -14 3z"/>
</g>
</svg>
